# AST/ASF file generated using VICON BodyLanguage
# -----------------------------------------------
:version 1.10
:name VICON
:units
  mass 1.0
  length 0.45
  angle deg
:documentation
   .ast/.asf automatically generated from VICON data using
   VICON BodyBuilder and BodyLanguage model FoxedUp or BRILLIANT.MOD
:root
   order TX TY TZ RX RY RZ
   axis XYZ
   position 0 0 0  
   orientation 0 0 0 
:bonedata
  begin
     id 1 
     name lhipjoint
     direction 0.78388 -0.462562 0.414208 
     length 3.01181 
     axis 0 0 0  XYZ
  end
  begin
     id 2 
     name lfemur
     direction 0.34202 -0.939693 0  
     length 6.04673  
     axis 0 0 20  XYZ
    dof rx ry rz
    limits (-160.0 20.0)
           (-70.0 70.0)
           (-60.0 70.0)
  end
  begin
     id 3 
     name ltibia
     direction 0.34202 -0.939693 0   
     length 7.211   
     axis 0 0 20   XYZ
    dof rx
    limits (-10.0 170.0)
  end
  begin
     id 4 
     name lfoot
     direction 0.121887 -0.334882 0.934344   
     length 2.13567   
     axis -90 7.62852e-016 20   XYZ
    dof rx rz
    limits (-45.0 90.0)
           (-70.0 20.0)
  end
  begin
     id 5 
     name ltoes
     direction 1.53555e-011 -4.2179e-011 1   
     length 1.05957   
     axis -90 7.62852e-016 20   XYZ
    dof rx
    limits (-90.0 20.0)
  end
  begin
     id 6 
     name rhipjoint
     direction -0.769387 -0.475875 0.426129   
     length 2.92756  
     axis 0 0 0  XYZ 
  end
  begin
     id 7 
     name rfemur
     direction -0.34202 -0.939693 0   
     length 6.35468   
     axis 0 0 -20   XYZ
    dof rx ry rz
    limits (-160.0 20.0)
           (-70.0 70.0)
           (-70.0 60.0)
  end
  begin
     id 8 
     name rtibia
     direction -0.34202 -0.939693 0   
     length 7.37886   
     axis 0 0 -20   XYZ
    dof rx
    limits (-10.0 170.0)
 end
 begin
     id 9 
     name rfoot
     direction -0.101763 -0.279592 0.954711   
     length 2.21478  
     axis -90 -7.62852e-016 -20   XYZ
    dof rx rz
    limits (-45.0 90.0)
           (-20.0 70.0)
  end
  begin
     id 10 
     name rtoes
     direction -1.53494e-011 -4.21851e-011 1   
     length 1.10506   
     axis -90 -7.62852e-016 -20   XYZ
    dof rx
    limits (-90.0 20.0)
  end
  begin
     id 11 
     name lowerback
     direction 0.00747405 0.999267 0.0375481   
     length 2.13259   
     axis 0 0 0   XYZ
    dof rx ry rz
    limits (-20.0 45.0)
           (-30.0 30.0)
           (-30.0 30.0)
  end
  begin
     id 12 
     name upperback
     direction 0.00661626 0.996177 0.0871029   
     length 2.10528   
     axis 0 0 0   XYZ
    dof rx ry rz
    limits (-20.0 45.0)
           (-30.0 30.0)
           (-30.0 30.0)
  end
  begin
     id 13 
     name thorax
     direction 0.00320659 0.997679 0.0680167   
     length 2.11338   
     axis 0 0 0   XYZ
    dof rx ry rz
    limits (-20.0 45.0)
           (-30.0 30.0)
           (-30.0 30.0)
  end
  begin
     id 14 
     name lowerneck
     direction 0.0374841 0.973033 0.227602   
     length 1.42765   
     axis 0 0 0   XYZ
    dof rx ry rz
    limits (-20.0 45.0)
           (-30.0 30.0)
           (-30.0 30.0)
  end
  begin
     id 15 
     name upperneck
     direction 0.00481585 0.989155 -0.146795   
     length 1.47593   
     axis 0 0 0   XYZ
    dof rx ry rz
    limits (-20.0 45.0)
           (-30.0 30.0)
           (-30.0 30.0)
  end
  begin
     id 16
     name head
     direction -0.00292522 0.997206 -0.0746423  
     length 1.48116  
     axis 0 0 0   XYZ
    dof rx ry rz
    limits (-20.0 45.0)
           (-30.0 30.0)
           (-30.0 30.0)
  end
  begin
     id 17 
     name lclavicle
     direction 0.951444 0.305606 0.0368784  
     length 3.01855  
     axis 0 0 0   XYZ
    dof ry rz
    limits (-20.0 10.0)
           (0.0 20.0)
  end
  begin
     id 18 
     name lhumerus
     direction 1 -4.48977e-011 2.61664e-027   
     length 5.52731   
     axis 180 -30 -90   XYZ
    dof rx ry rz
    limits (-60.0 90.0)
           (-90.0 90.0)
           (-90.0 90.0)
  end
  begin
     id 19
     name lradius
     direction 1 -4.48944e-011 8.22157e-027   
     length 3.11059   
     axis 180 -30 -90   XYZ
    dof rx
    limits (-10.0 170.0)
  end
  begin
     id 20
     name lwrist
     direction 1 -4.48976e-011 1.5779e-026   
     length 1.5553   
     axis -1.15221e-014 90 90   XYZ
    dof ry
    limits (-180.0 0.0)
 end
  begin
     id 21 
     name lhand
     direction 1 -4.49025e-011 3.1558e-026   
     length 0.419626   
     axis -2.01367e-014 90 90   XYZ
    dof rx rz
    limits (-90.0 90.0)
           (-45.0 45.0)
  end
  begin
     id 22 
     name lfingers
     direction 1 -4.4904e-011 6.31161e-026   
     length 0.338313   
     axis -4.02734e-014 90 90   XYZ
    dof rx
    limits (0.0 90.0)
  end
  begin
     id 23
     name lthumb
     direction 0.707107 -6.35004e-011 0.707107   
     length 0.485752   
     axis -90 45 2.85299e-015   XYZ
    dof rx rz
    limits (-45.0 45.0)
           (-45.0 45.0)
  end
  begin
     id 24 
     name rclavicle
     direction -0.968876 0.223791 0.105816   
     length 3.04177  
     axis 0 0 0   XYZ 
    dof ry rz
    limits (-10.0 20.0)
           (-20.0 0.0)
  end
  begin
     id 25 
     name rhumerus
     direction -1 -4.48962e-011 -1.01384e-027  
     length 5.25396   
     axis 180 30 90   XYZ
    dof rx ry rz
    limits (-90.0 60.0)
           (-90.0 90.0)
           (-90.0 90.0)
  end
  begin
     id 26 
     name rradius
     direction -1 -4.48955e-011 8.88542e-027   
     length 3.10567   
     axis 180 30 90   XYZ
    dof rx
    limits (-10.0 170.0)
  end
  begin
     id 27 
     name rwrist
     direction -1 -4.48994e-011 1.5779e-026   
     length 1.55283   
     axis -1.15221e-014 -90 -90   XYZ
    dof ry
    limits (-180.0 0.0)
  end
  begin
     id 28
     name rhand
     direction -1 -4.48891e-011 3.1558e-026   
     length 0.498676   
     axis -2.01367e-014 -90 -90   XYZ
    dof rx rz
    limits (-90.0 90.0)
           (-45.0 45.0)
  end
  begin
     id 29
     name rfingers
     direction -1 -4.48972e-011 6.31161e-026   
     length 0.402045   
     axis -4.02734e-014 -90 -90   XYZ
    dof rx
    limits (0.0 90.0)
  end
  begin
     id 30
     name rthumb
     direction -0.707107 -6.34849e-011 0.707107   
     length 0.577259   
     axis -90 -45 -2.85299e-015   XYZ
    dof rx rz
    limits (-45.0 45.0)
           (-45.0 45.0)
  end
:hierarchy
  begin
    root lhipjoint rhipjoint lowerback
    lhipjoint lfemur
    lfemur ltibia
    ltibia lfoot
    lfoot ltoes
    rhipjoint rfemur
    rfemur rtibia
    rtibia rfoot
    rfoot rtoes
    lowerback upperback
    upperback thorax
    thorax lowerneck lclavicle rclavicle
    lowerneck upperneck
    upperneck head
    lclavicle lhumerus
    lhumerus lradius
    lradius lwrist
    lwrist lhand lthumb
    lhand lfingers
    rclavicle rhumerus
    rhumerus rradius
    rradius rwrist
    rwrist rhand rthumb
    rhand rfingers
  end

#!OML:ASF H:\Pregnant\Project 1\Capture day 1\Session 1\femalepreg.ASF
:FULLY-SPECIFIED
:DEGREES
96
root 10.7799 14.6392 38.6152 -162.253 4.85617 167.435
lowerback -13.9185 -0.140284 -13.2457
upperback 0.0243122 3.07748 -5.1925
thorax 7.58032 1.38781 2.48585
lowerneck -12.1691 5.54276 5.51502
upperneck 32.7792 2.35728 4.1349
head 13.0838 1.28422 0.775477
rclavicle 1.71949e-014 5.04913e-014
rhumerus -29.1404 17.8486 -92.8516
rradius 31.2781
rwrist -1.74635
rhand -20.3905 -20.7383
rfingers 7.12502
rthumb 5.96281 -50.6343
lclavicle 1.71949e-014 5.04913e-014
lhumerus -29.4017 -24.7442 88.1054
lradius 29.5433
lwrist 44.2422
lhand -28.0032 3.55854
lfingers 7.12502
lthumb -1.38898 33.5338
rfemur -53.128 3.75081 1.74838
rtibia 62.0272
rfoot -19.1018 -21.3348
rtoes -11.1887
lfemur -21.4284 0.707704 -41.844
ltibia 11.3758
lfoot -8.33791 1.64151
ltoes -29.6098
97
root 10.7929 14.6452 38.6045 -162.141 4.97107 167.522
lowerback -13.9405 -0.139429 -13.2243
upperback -0.00458553 3.0579 -5.11778
thorax 7.55838 1.3751 2.55114
lowerneck -12.1866 5.52004 5.53109
upperneck 32.8055 2.29463 4.16485
head 13.0994 1.25983 0.775347
rclavicle -3.57812e-015 3.18055e-015
rhumerus -29.1609 17.7099 -92.7459
rradius 31.2811
rwrist -1.7389
rhand -20.4326 -20.74
rfingers 7.12502
rthumb 5.92217 -50.6372
lclavicle -3.57812e-015 3.18055e-015
lhumerus -29.4287 -24.7119 88.1708
lradius 29.64
lwrist 44.3924
lhand -28.0125 3.53092
lfingers 7.12502
lthumb -1.39803 33.5061
rfemur -53.1892 3.74975 1.8887
rtibia 61.8981
rfoot -19.0413 -21.2062
rtoes -11.4492
lfemur -21.5205 0.681835 -41.702
ltibia 11.3795
lfoot -8.315 1.79432
ltoes -29.7757
98
root 10.8059 14.6519 38.5935 -162.021 5.08311 167.621
lowerback -13.9688 -0.134051 -13.1905
upperback -0.0420725 3.04091 -5.03559
thorax 7.53004 1.36426 2.6184
lowerneck -12.2062 5.49634 5.55008
upperneck 32.8474 2.23208 4.17904
head 13.1224 1.23345 0.76877
rclavicle -2.3059e-014 -1.70955e-014
rhumerus -29.192 17.5528 -92.6301
rradius 31.2745
rwrist -1.72834
rhand -20.4682 -20.7451
rfingers 7.12502
rthumb 5.88778 -50.6433
lclavicle -2.3059e-014 -1.70955e-014
lhumerus -29.4577 -24.6883 88.2505
lradius 29.7197
lwrist 44.5159
lhand -28.0199 3.51009
lfingers 7.12502
lthumb -1.40514 33.4852
rfemur -53.2528 3.75507 2.03939
rtibia 61.7599
rfoot -18.9795 -21.083
rtoes -11.6723
lfemur -21.6144 0.651266 -41.549
ltibia 11.3711
lfoot -8.2836 1.94922
ltoes -29.9514
99
root 10.8188 14.6592 38.5821 -161.885 5.19308 167.731
lowerback -14.0167 -0.130701 -13.1503
upperback -0.0843509 3.01923 -4.93353
thorax 7.50707 1.34987 2.7031
lowerneck -12.2332 5.47635 5.55038
upperneck 32.9082 2.18268 4.17761
head 13.1544 1.20856 0.761618
rclavicle -7.15625e-015 5.36719e-014
rhumerus -29.2276 17.408 -92.4914
rradius 31.2596
rwrist -1.71589
rhand -20.5144 -20.7439
rfingers 7.12502
rthumb 5.84319 -50.6433
lclavicle -7.15625e-015 5.36719e-014
lhumerus -29.4758 -24.6399 88.3506
lradius 29.7697
lwrist 44.5999
lhand -28.0234 3.49525
lfingers 7.12502
lthumb -1.40856 33.4703
rfemur -53.3223 3.76613 2.19986
rtibia 61.61
rfoot -18.9131 -20.9636
rtoes -11.8717
lfemur -21.7165 0.613383 -41.3836
ltibia 11.3543
lfoot -8.24475 2.10779
ltoes -30.1385
100
root 10.8316 14.6674 38.5701 -161.73 5.30139 167.857
lowerback -14.0873 -0.117752 -13.0743
upperback -0.143148 3.00736 -4.83407
thorax 7.47894 1.34273 2.76795
lowerneck -12.2384 5.45451 5.564
upperneck 32.9817 2.12448 4.1708
head 13.1879 1.17903 0.748179
rclavicle 4.96962e-016 2.78299e-015
rhumerus -29.2897 17.215 -92.3548
rradius 31.237
rwrist -1.68185
rhand -20.5618 -20.7588
rfingers 7.12502
rthumb 5.79745 -50.6595
lclavicle 4.96962e-016 2.78299e-015
lhumerus -29.5095 -24.6201 88.4587
lradius 29.8015
lwrist 44.6548
lhand -28.0228 3.49326
lfingers 7.12502
lthumb -1.40796 33.4684
rfemur -53.4012 3.78643 2.37143
rtibia 61.4444
rfoot -18.8452 -20.8421
rtoes -12.026
lfemur -21.8355 0.566104 -41.2012
ltibia 11.3357
lfoot -8.19953 2.27299
ltoes -30.3367
101
root 10.844 14.6767 38.5576 -161.556 5.40703 168.006
lowerback -14.187 -0.0994921 -12.9643
upperback -0.207435 2.99917 -4.72452
thorax 7.46134 1.33735 2.82662
lowerneck -12.249 5.43315 5.56858
upperneck 33.0709 2.06797 4.15892
head 13.229 1.14821 0.734772
rclavicle -1.1281e-014 6.22196e-014
rhumerus -29.3517 17.0146 -92.2054
rradius 31.1987
rwrist -1.64234
rhand -20.6096 -20.794
rfingers 7.12502
rthumb 5.75127 -50.696
lclavicle -1.1281e-014 6.22196e-014
lhumerus -29.5308 -24.6004 88.5754
lradius 29.8043
lwrist 44.6727
lhand -28.0078 3.49191
lfingers 7.12502
lthumb -1.39343 33.4671
rfemur -53.4864 3.8184 2.55866
rtibia 61.2585
rfoot -18.7697 -20.7208
rtoes -12.1477
lfemur -21.9762 0.505085 -40.995
ltibia 11.3243
lfoot -8.14891 2.44963
ltoes -30.5494
